<?xml version="1.0" standalone="no"?>
<!DOCTYPE svg PUBLIC "-//W3C//DTD SVG 20010904//EN"
 "http://www.w3.org/TR/2001/REC-SVG-20010904/DTD/svg10.dtd">
<svg version="1.0" xmlns="http://www.w3.org/2000/svg"
 width="260.000000pt" height="260.000000pt" viewBox="0 0 260.000000 260.000000"
 preserveAspectRatio="xMidYMid meet">
<metadata>
Created by potrace 1.11, written by Peter Selinger 2001-2013
</metadata>
<g transform="translate(0.000000,260.000000) scale(0.100000,-0.100000)"
fill="#000000" stroke="none">
<path d="M48 2583 c-14 -9 -31 -27 -37 -40 -15 -34 -15 -2452 0 -2486 6 -13
23 -31 39 -40 26 -16 128 -17 1250 -17 1122 0 1224 1 1250 17 16 9 33 27 39
40 8 17 11 388 11 1244 0 1121 -1 1223 -17 1249 -9 16 -27 33 -40 39 -17 8
-388 11 -1246 11 -1121 -1 -1224 -2 -1249 -17z"/>
</g>
</svg>
