<?xml version="1.0" standalone="no"?>
<!DOCTYPE svg PUBLIC "-//W3C//DTD SVG 20010904//EN"
 "http://www.w3.org/TR/2001/REC-SVG-20010904/DTD/svg10.dtd">
<svg version="1.0" xmlns="http://www.w3.org/2000/svg"
 width="512.000000pt" height="512.000000pt" viewBox="0 0 512.000000 512.000000"
 preserveAspectRatio="xMidYMid meet">
<metadata>
Created by potrace 1.11, written by Peter Selinger 2001-2013
</metadata>
<g transform="translate(0.000000,512.000000) scale(0.100000,-0.100000)"
fill="#000000" stroke="none">
<path d="M870 5113 c-393 -57 -710 -327 -819 -698 -30 -103 -33 -128 -36 -261
-3 -133 9 -209 49 -327 53 -156 141 -292 258 -401 l81 -76 -30 -83 c-53 -141
-81 -236 -109 -372 -30 -145 -41 -286 -39 -490 2 -110 5 -211 8 -225 3 -14 8
-47 12 -75 44 -357 211 -755 450 -1073 74 -100 86 -114 162 -193 l44 -46 -97
-119 c-359 -437 -343 -415 -348 -472 -11 -109 79 -203 189 -198 86 4 100 16
269 225 66 81 204 249 247 299 l19 22 88 -59 c173 -118 427 -236 630 -295 93
-27 252 -62 317 -70 22 -3 63 -9 90 -13 108 -16 479 -8 600 12 28 5 44 8 105
20 14 3 41 8 60 11 55 9 252 71 353 111 147 57 285 130 422 223 39 25 75 50
81 53 7 4 61 -54 132 -141 66 -81 128 -157 139 -169 10 -12 25 -30 33 -40 121
-149 119 -147 159 -167 45 -24 69 -28 119 -21 76 11 152 101 152 180 0 34 -39
127 -59 140 -5 3 -47 51 -92 108 -45 56 -87 107 -93 112 -7 6 -18 19 -26 31
-8 11 -32 41 -52 65 -20 24 -57 68 -81 98 l-44 54 31 31 c256 254 507 710 581
1056 27 123 34 161 39 195 4 23 9 52 11 65 8 38 19 262 19 375 -1 278 -48 522
-153 790 l-19 50 78 75 c147 142 231 286 282 480 26 101 32 300 13 395 -9 39
-18 83 -21 99 -3 17 -23 69 -43 116 -126 293 -385 508 -694 576 -98 22 -272
25 -377 7 -248 -42 -491 -195 -628 -394 l-31 -47 -83 24 c-90 27 -286 69 -358
78 -25 3 -67 8 -95 12 -70 8 -338 8 -410 0 -176 -21 -322 -50 -475 -94 l-65
-19 -64 81 c-144 182 -345 307 -571 356 -53 12 -259 20 -310 13z"/>
</g>
</svg>
